<?xml version="1.0" encoding="UTF-8" standalone="no"?>
<!-- Created with Inkscape (http://www.inkscape.org/) -->
<svg id="svg2" xmlns:rdf="http://www.w3.org/1999/02/22-rdf-syntax-ns#" xmlns="http://www.w3.org/2000/svg" height="210mm" width="210mm" version="1.1" xmlns:cc="http://creativecommons.org/ns#" xmlns:xlink="http://www.w3.org/1999/xlink" viewBox="0 0 744.09449 744.09448" xmlns:dc="http://purl.org/dc/elements/1.1/">
 <defs id="defs4">
  <marker id="Arrow1Sstart" refY="0.0" refX="0.0" orient="auto" overflow="visible">
   <path id="path4162" d="m0 0l5-5-17.5 5 17.5 5-5-5z" fill-rule="evenodd" transform="scale(.2) translate(6)" stroke="#fff" stroke-width="1pt" fill="#fff"/>
  </marker>
  <linearGradient id="linearGradient7191" y2="277.46" gradientUnits="userSpaceOnUse" x2="440.58" gradientTransform="matrix(.96591 0 0 .97348 12.685 18.04)" y1="922.18" x1="253.48">
   <stop id="stop7187" stop-color="#000065" offset="0"/>
   <stop id="stop7189" stop-color="#80e5ff" offset="1"/>
  </linearGradient>
 </defs>
 <metadata id="metadata7">
  <rdf:RDF>
   <cc:Work rdf:about="">
    <dc:format>image/svg+xml</dc:format>
    <dc:type rdf:resource="http://purl.org/dc/dcmitype/StillImage"/>
    <dc:title/>
   </cc:Work>
  </rdf:RDF>
 </metadata>
 <g id="layer1" transform="translate(0 -308.27)">
  <ellipse id="path4140" fill-rule="evenodd" rx="364.25" ry="367.11" cy="680.31" cx="372.05" fill="url(#linearGradient7191)"/>
  <path id="path4144" stroke-linejoin="bevel" d="m-524.01 649.36c-6.2992-127.7 100.9-233.12 226.09-237.91 144.34-5.5203 263.02 116.04 267.22 257.87 4.7645 160.99-131.18 292.93-289.65 296.53-177.63 4.0249-322.86-146.32-325.83-321.43-0.62809-37.006 4.8668-74.066 16.099-109.33" transform="matrix(-1.0164 0 0 1.0375 6.6305 -8.665)" stroke="#fff" stroke-linecap="square" stroke-width="50.188" fill="none"/>
  <a id="a7201" transform="matrix(1.0164 0 0 1.0375 -18.054 -1.2542)">
   <path id="path6840" stroke-linejoin="round" d="m108.57 695.22c39.048-6.9955 52.796-48.99 91.844-184.51 40.117 300.72 52.492 319.44 147.03 8.2275 34.327 286.52 34.567 283.02 142.2 304.32 10.992 5.4432 52.756-78.992 57.498-163.76" stroke="#fff" stroke-width="50.188" fill="none"/>
  </a>
  <path id="path7210" stroke-linejoin="round" fill="#fff" transform="matrix(.49005 -.83889 .83236 .49390 -135.86 811.28)" stroke="#fff" stroke-linecap="square" stroke-width="35.433" d="m682.86 588.08-99.347-48.356 91.551-61.859z"/>
  <path id="path7214" marker-end="url(#Arrow1Sstart)" d="m601.34 488.36-45.92-44.76" stroke="#fff" stroke-width="24.051" fill="none"/>
 </g>
</svg>
